<?xml version="1.0" encoding="utf-8"?>
<!-- Generator: Adobe Illustrator 25.4.1, SVG Export Plug-In . SVG Version: 6.00 Build 0)  -->
<svg version="1.1" id="Camada_1" xmlns="http://www.w3.org/2000/svg" xmlns:xlink="http://www.w3.org/1999/xlink" x="0px" y="0px"
	 viewBox="0 0 246 226" style="enable-background:new 0 0 246 226;" xml:space="preserve">
<style type="text/css">
	.st0{fill:#FF931E;}
	.st1{fill:#FFFFFF;}
	.st2{fill:#E2E2E2;}
	.st3{fill:#262626;}
	.st4{fill:none;stroke:#262626;stroke-width:2;stroke-miterlimit:10;}
	.st5{enable-background:new    ;}
</style>
<path class="st0" d="M132.7-0.2c-26.8,0-52.8,9.5-73.2,26.9l3.9,4.6C108.4-7.1,176-1.5,214.3,43.5s32.8,112.7-12.3,151
	c-43.9,37.3-109.4,33.2-148.3-9.3H6v-25h31v-81H10V60.7c14.5-3,24.7-6.9,35.4-13.5H70v112h29v-6H76v-112H43.7L43,41.7
	C32,48.5,21.8,52.3,6.4,55.3L4,55.8v29.5h27v68H0v38h51.1c43.3,45.1,114.9,46.5,159.9,3.2s46.5-114.9,3.2-159.9
	C192.9,12.3,163.5-0.2,132.7-0.2z"/>
<path class="st1" d="M204.5,112.5c0,39.9-32.4,72.3-72.3,72.3S60,152.4,60,112.5s32.4-72.3,72.3-72.3l0,0
	C172.2,40.2,204.5,72.6,204.5,112.5z"/>
<path class="st2" d="M197.2,80.8c16.3,36.5-0.1,79.2-36.6,95.4c-31.1,13.9-67.8,4.1-87.8-23.4c2.1,3.4,4.5,6.6,7.2,9.6
	c27.6,28.9,73.3,30,102.2,2.4C205,143,211,109.1,197.2,80.8z"/>
<circle class="st3" cx="136.7" cy="79.4" r="10.2"/>
<path class="st3" d="M117.4,102.3L117.4,102.3c0-4,3.2-7.2,7.2-7.2h24.2c4,0,7.2,3.2,7.2,7.2l0,0v3.9h-38.6V102.3z"/>
<line class="st4" x1="109.8" y1="75.1" x2="109.8" y2="96.3"/>
<line class="st4" x1="99.2" y1="85.7" x2="120.4" y2="85.7"/>
<g class="st5">
	<path d="M115.5,125.3v2.2h3.9v1.6h-3.9v3.1h-1.9v-8.4h6.3v1.6H115.5z"/>
</g>
<g class="st5">
	<path d="M127.6,130.4h-3.9l-0.7,1.8h-2l3.7-8.4h1.9l3.8,8.4h-2L127.6,130.4z M127,128.9l-1.3-3.2l-1.3,3.2H127z"/>
</g>
<g class="st5">
	<path d="M138.6,129.7l1.2,1.2c-0.8,0.9-1.9,1.5-3.3,1.5l-0.1,0.5c0.7,0.1,1,0.5,1,1c0,0.7-0.7,1.2-1.8,1.2c-0.4,0-0.8-0.1-1.1-0.3
		l0.3-0.8c0.2,0.1,0.5,0.2,0.8,0.2c0.4,0,0.6-0.2,0.6-0.4c0-0.2-0.2-0.3-0.6-0.3h-0.4l0.3-1.1c-2.2-0.3-3.7-2-3.7-4.3
		c0-2.5,1.9-4.3,4.6-4.3c1.5,0,2.7,0.5,3.5,1.5l-1.2,1.2c-0.6-0.6-1.3-1-2.1-1c-1.6,0-2.7,1.1-2.7,2.7c0,1.6,1.1,2.7,2.7,2.7
		C137.3,130.7,138,130.3,138.6,129.7z"/>
</g>
<g class="st5">
	<path d="M147.7,130.4h-3.9l-0.7,1.8h-2l3.7-8.4h1.9l3.8,8.4h-2L147.7,130.4z M147.1,128.9l-1.3-3.2l-1.3,3.2H147.1z"/>
</g>
<g class="st5">
	<path d="M110,138.2h1.9v6.8h4.2v1.6H110V138.2z"/>
</g>
<g class="st5">
	<path d="M117.8,142.4c0-2.5,1.9-4.3,4.6-4.3c2.6,0,4.6,1.8,4.6,4.3c0,2.5-2,4.3-4.6,4.3C119.7,146.7,117.8,144.9,117.8,142.4z
		 M125,142.4c0-1.6-1.1-2.7-2.6-2.7c-1.5,0-2.6,1.1-2.6,2.7c0,1.6,1.1,2.7,2.6,2.7C123.9,145.1,125,144,125,142.4z"/>
	<path d="M135.1,142.2h1.8v3.4c-0.9,0.7-2.2,1.1-3.4,1.1c-2.6,0-4.6-1.8-4.6-4.3c0-2.5,1.9-4.3,4.6-4.3c1.5,0,2.7,0.5,3.5,1.5
		l-1.2,1.2c-0.6-0.6-1.3-0.9-2.2-0.9c-1.6,0-2.7,1.1-2.7,2.7c0,1.6,1.1,2.7,2.7,2.7c0.5,0,1-0.1,1.5-0.4V142.2z"/>
	<path d="M139.7,138.2h1.9v8.4h-1.9V138.2z"/>
	<path d="M152.3,138.2v8.4h-1.6l-4.2-5.1v5.1h-1.9v-8.4h1.6l4.2,5.1v-5.1H152.3z"/>
</g>
</svg>
