<?xml version="1.0" encoding="utf-8"?>
<!-- Generator: Adobe Illustrator 25.4.1, SVG Export Plug-In . SVG Version: 6.00 Build 0)  -->
<svg version="1.1" id="Camada_1" xmlns="http://www.w3.org/2000/svg" xmlns:xlink="http://www.w3.org/1999/xlink" x="0px" y="0px"
	 viewBox="0 0 251 226" style="enable-background:new 0 0 251 226;" xml:space="preserve">
<style type="text/css">
	.st0{fill:#FF931E;}
	.st1{fill:#FFFFFF;}
	.st2{fill:#E2E2E2;}
	.st3{enable-background:new    ;}
	.st4{fill:none;stroke:#262626;stroke-width:1.5;stroke-miterlimit:10;}
</style>
<path class="st0" d="M138.3-0.2C113.4-0.3,89.2,7.9,69.5,23l3.7,4.8C98.1,8.7,129.4,1.5,161.7,8.2c38.1,7.9,68.7,36.3,79.4,73.8
	c20.4,72.2-33.7,138-102.8,138c-29.6,0-58.9-13.2-79.1-34.8H9V167c34.9-32.6,60.1-56.2,60.1-77c0-14-7.7-22.3-20.6-22.3
	c-9.9,0-17.6,6.7-23.5,12.5L8.4,63.3C22.7,48.6,35.3,43,53.9,43c27.7,0,46.3,18,46.3,44.7c0,22.4-21.5,47.7-40.3,67.2l-6,6.2
	l8.5-1.1c7.8-1,15.7-1.6,23.6-1.8h21v30h6v-36H86c-4.4,0-10.4,0.4-16.1,0.9c18-19.3,36.3-43,36.3-65.2c0-14.9-5.1-27.7-14.7-36.8
	C82,42.1,69,37.3,53.9,37.3c-21.1,0-35.6,6.8-51.9,24.3l-2,2.1L25,89l2.1-2.1C34,79.9,40.4,74,48.5,74c9.6,0,14.6,5.6,14.6,16.2
	c0,18.2-25.7,42.2-58.3,72.5L3,164.4v26.8h53.7c43.3,45.1,114.9,46.5,159.9,3.2s46.5-114.9,3.2-159.9
	C198.6,12.3,169.1-0.3,138.3-0.2z"/>
<path class="st1" d="M210.3,112.5c0,39.9-32.4,72.3-72.3,72.3s-72.3-32.4-72.3-72.3S98.1,40.2,138,40.2
	C178,40.2,210.3,72.6,210.3,112.5L210.3,112.5z"/>
<path class="st2" d="M203.2,80.8c16.3,36.4-0.1,79.2-36.5,95.5c-31.2,13.9-67.8,4.1-87.9-23.5c2.1,3.4,4.5,6.6,7.2,9.6
	c27.6,28.9,73.3,29.9,102.2,2.3C210.9,143,217,109.1,203.2,80.8z"/>
<g class="st3">
	<path d="M83.3,128c0-2.5,1.9-4.3,4.6-4.3c1.5,0,2.7,0.5,3.5,1.5l-1.2,1.2c-0.6-0.6-1.3-1-2.1-1c-1.6,0-2.7,1.1-2.7,2.7
		c0,1.6,1.1,2.7,2.7,2.7c0.8,0,1.5-0.3,2.1-1l1.2,1.2c-0.8,1-2,1.5-3.5,1.5C85.2,132.3,83.3,130.5,83.3,128z"/>
</g>
<g class="st3">
	<path d="M99.2,130.4h-3.9l-0.7,1.8h-2l3.7-8.4h1.9l3.8,8.4h-2L99.2,130.4z M98.5,128.9l-1.3-3.2l-1.3,3.2H98.5z"/>
</g>
<g class="st3">
	<path d="M104,123.8h3.8c2.7,0,4.6,1.7,4.6,4.2c0,2.5-1.9,4.2-4.6,4.2H104V123.8z M107.7,130.6c1.7,0,2.8-1,2.8-2.6
		c0-1.6-1.1-2.6-2.8-2.6H106v5.2H107.7z"/>
</g>
<g class="st3">
	<path d="M120.5,130.4h-3.9l-0.7,1.8h-2l3.7-8.4h1.9l3.8,8.4h-2L120.5,130.4z M119.9,128.9l-1.3-3.2l-1.3,3.2H119.9z"/>
</g>
<g class="st3">
	<path d="M124.7,131.3l0.7-1.5c0.7,0.5,1.8,0.9,2.8,0.9c1.2,0,1.6-0.4,1.6-0.9c0-1.6-4.9-0.5-4.9-3.6c0-1.4,1.2-2.6,3.5-2.6
		c1.1,0,2.1,0.3,2.9,0.7l-0.6,1.5c-0.8-0.4-1.6-0.7-2.3-0.7c-1.2,0-1.6,0.4-1.6,1c0,1.5,4.9,0.5,4.9,3.6c0,1.4-1.2,2.6-3.6,2.6
		C126.8,132.3,125.5,131.9,124.7,131.3z"/>
</g>
<g class="st3">
	<path d="M135.9,125.4h-2.7v-1.6h7.3v1.6h-2.7v6.8h-1.9V125.4z"/>
	<path d="M147.9,132.2l-1.6-2.3h-0.1h-1.7v2.3h-1.9v-8.4h3.6c2.2,0,3.6,1.2,3.6,3c0,1.3-0.6,2.2-1.7,2.7l1.9,2.7H147.9z
		 M146.1,125.4h-1.6v2.9h1.6c1.2,0,1.8-0.6,1.8-1.5C147.9,125.9,147.3,125.4,146.1,125.4z"/>
	<path d="M158.9,130.6v1.6h-6.5v-8.4h6.3v1.6h-4.4v1.8h3.9v1.5h-3.9v1.9H158.9z"/>
	<path d="M165.1,131.3l0.7-1.5c0.7,0.5,1.8,0.9,2.8,0.9c1.2,0,1.6-0.4,1.6-0.9c0-1.6-4.9-0.5-4.9-3.6c0-1.4,1.2-2.6,3.5-2.6
		c1.1,0,2.1,0.3,2.9,0.7l-0.6,1.5c-0.8-0.4-1.6-0.7-2.3-0.7c-1.2,0-1.6,0.4-1.6,1c0,1.5,4.9,0.5,4.9,3.6c0,1.4-1.2,2.6-3.6,2.6
		C167.2,132.3,165.9,131.9,165.1,131.3z"/>
</g>
<g class="st3">
	<path d="M175.4,128.5v-4.7h1.9v4.6c0,1.6,0.7,2.3,1.9,2.3c1.2,0,1.9-0.7,1.9-2.3v-4.6h1.9v4.7c0,2.5-1.4,3.8-3.8,3.8
		S175.4,130.9,175.4,128.5z"/>
</g>
<g class="st3">
	<path d="M191.5,130.4h-3.9l-0.7,1.8h-2l3.7-8.4h1.9l3.8,8.4h-2L191.5,130.4z M190.9,128.9l-1.3-3.2l-1.3,3.2H190.9z"/>
</g>
<g class="st3">
	<path d="M104.4,142.4c0-2.5,1.9-4.3,4.6-4.3c1.5,0,2.7,0.5,3.5,1.5l-1.2,1.2c-0.6-0.6-1.3-1-2.1-1c-1.6,0-2.7,1.1-2.7,2.7
		c0,1.6,1.1,2.7,2.7,2.7c0.8,0,1.5-0.3,2.1-1l1.2,1.2c-0.8,1-2,1.5-3.5,1.5C106.4,146.7,104.4,144.9,104.4,142.4z"/>
</g>
<g class="st3">
	<path d="M114.2,142.4c0-2.5,1.9-4.3,4.6-4.3c2.6,0,4.6,1.8,4.6,4.3c0,2.5-2,4.3-4.6,4.3C116.2,146.7,114.2,144.9,114.2,142.4z
		 M121.5,142.4c0-1.6-1.1-2.7-2.6-2.7c-1.5,0-2.6,1.1-2.6,2.7c0,1.6,1.1,2.7,2.6,2.7C120.3,145.1,121.5,144,121.5,142.4z"/>
	<path d="M125.9,138.2h1.9v6.8h4.2v1.6h-6.2V138.2z"/>
</g>
<g class="st3">
	<path d="M141,145v1.6h-6.5v-8.4h6.3v1.6h-4.4v1.8h3.9v1.5h-3.9v1.9H141z"/>
</g>
<g class="st3">
	<path d="M150,144.1l1.2,1.2c-0.8,0.9-1.9,1.5-3.3,1.5l-0.1,0.5c0.7,0.1,1,0.5,1,1c0,0.7-0.7,1.2-1.8,1.2c-0.4,0-0.8-0.1-1.1-0.3
		l0.3-0.8c0.2,0.1,0.5,0.2,0.8,0.2c0.4,0,0.6-0.2,0.6-0.4c0-0.2-0.2-0.3-0.6-0.3h-0.4l0.3-1.1c-2.2-0.3-3.7-2-3.7-4.3
		c0-2.5,1.9-4.3,4.6-4.3c1.5,0,2.7,0.5,3.5,1.5l-1.2,1.2c-0.6-0.6-1.3-1-2.1-1c-1.6,0-2.7,1.1-2.7,2.7c0,1.6,1.1,2.7,2.7,2.7
		C148.7,145.1,149.4,144.7,150,144.1z"/>
</g>
<g class="st3">
	<path d="M159.1,144.8h-3.9l-0.7,1.8h-2l3.7-8.4h1.9l3.8,8.4h-2L159.1,144.8z M155.8,137.4h-0.9c0-1.1,0.6-1.8,1.4-1.8
		c0.8,0,1.2,0.8,1.7,0.8c0.3,0,0.6-0.3,0.6-0.6h0.9c0,1-0.6,1.7-1.4,1.7c-0.8,0-1.2-0.8-1.7-0.8C156.1,136.8,155.9,137,155.8,137.4z
		 M158.5,143.3l-1.3-3.2l-1.3,3.2H158.5z"/>
</g>
<g class="st3">
	<path d="M163.3,142.4c0-2.5,1.9-4.3,4.6-4.3c2.6,0,4.6,1.8,4.6,4.3c0,2.5-2,4.3-4.6,4.3C165.3,146.7,163.3,144.9,163.3,142.4z
		 M170.6,142.4c0-1.6-1.1-2.7-2.6-2.7c-1.5,0-2.6,1.1-2.6,2.7c0,1.6,1.1,2.7,2.6,2.7C169.4,145.1,170.6,144,170.6,142.4z"/>
</g>
<path class="st4" d="M129.1,69h17.8c5.4,0,9.8,4.4,9.8,9.8v17.8c0,5.4-4.4,9.8-9.8,9.8l0,0h-17.8c-5.4,0-9.8-4.4-9.8-9.8V78.8
	C119.3,73.4,123.7,69,129.1,69z"/>
<line class="st4" x1="138.1" y1="78.9" x2="138.1" y2="96.3"/>
<line class="st4" x1="129.3" y1="87.6" x2="146.8" y2="87.6"/>
</svg>
