<?xml version="1.0" encoding="utf-8"?>
<!-- Generator: Adobe Illustrator 25.4.1, SVG Export Plug-In . SVG Version: 6.00 Build 0)  -->
<svg version="1.1" id="Camada_1" xmlns="http://www.w3.org/2000/svg" xmlns:xlink="http://www.w3.org/1999/xlink" x="0px" y="0px"
	 viewBox="0 0 248 226" style="enable-background:new 0 0 248 226;" xml:space="preserve">
<style type="text/css">
	.st0{fill:#FF931E;}
	.st1{fill:#FFFFFF;}
	.st2{fill:#E2E2E2;}
	.st3{enable-background:new    ;}
	.st4{fill:none;stroke:#262626;stroke-width:1.5;stroke-linecap:round;stroke-linejoin:round;}
</style>
<path class="st0" d="M134.4-0.2c-24.8-0.1-49,8.1-68.7,23.3l3.6,4.8C94.2,8.7,125.5,1.5,157.6,8.1C195.8,16,226.4,44.5,237,82
	c20.3,72.2-33.6,138-102.6,138c-28.3,0-56-12.2-76.2-32.1h-3.3c-20.1,0-36.4-6.1-47.2-17.6L22,150.6c9.4,7.9,19.5,12.1,28.9,12.1
	c14.9,0,23.8-6.2,23.8-16.6c0-14.2-9.7-19.8-35.7-20.2v-21.2c14.2-0.3,31.2-3.1,31.2-19.3c0-10.2-6.5-16.1-17.9-16.1
	c-9.6,0-16.7,3.8-24.9,10.5L11.7,61C25.4,50.1,38.9,45,54,45c30.7,0,49,14,49,37.5c0,12.7-6.9,21.9-21.3,28.3l-1.8,0.8v5.2l2.1,0.7
	c16.4,5,25.4,16.2,25.4,31.5h6c0-16.3-8.5-28.6-24-35.2c13-7.3,19.5-17.7,19.5-31c0-13.6-5.3-24.8-15.3-32.4
	C84.1,43.1,70.4,39.3,54,39.3c-17.2,0-33,6.3-48.5,19.2l-2.3,1.9l23.3,28.1l2.3-2c8.4-7.2,14.6-11,23.4-11c5.1,0,11.9,1,11.9,10.1
	c0,6.6-3.3,13.3-28.2,13.3H33v33h3c32.8,0,32.8,7.9,32.8,14.2c0,9.2-11.2,10.6-17.8,10.6c-8.7,0-18.5-4.5-27.4-12.8l-2.6-2.3
	L0,170.7l1.5,1.8c12,14,30.5,21.4,53.4,21.4h0.7c21,20.6,49.2,32.1,78.6,32.1c62.5,0.1,114-52.3,113-114.8
	C246.4,49.6,196.1-0.2,134.4-0.2z"/>
<path class="st1" d="M207.1,113.2c0,39.9-32.4,72.3-72.3,72.3s-72.3-32.4-72.3-72.3s32.4-72.3,72.3-72.3
	C174.7,40.9,207.1,73.3,207.1,113.2L207.1,113.2z"/>
<path class="st2" d="M199.8,81.5c16.3,36.5-0.1,79.2-36.6,95.4c-31.1,13.9-67.8,4.1-87.8-23.4c2.1,3.4,4.5,6.6,7.2,9.6
	c27.5,28.9,73.3,30,102.2,2.4C207.5,143.8,213.6,109.8,199.8,81.5z"/>
<g class="st3">
	<path d="M99.7,131.3v1.6h-6.5v-8.4h6.3v1.6h-4.4v1.8h3.9v1.5h-3.9v1.9H99.7z"/>
</g>
<g class="st3">
	<path d="M107.7,132.9l-2-2.9l-2,2.9h-2.2l3.1-4.3l-3-4.1h2.2l1.9,2.7l1.9-2.7h2.1l-2.9,4.1l3.1,4.3H107.7z"/>
</g>
<g class="st3">
	<path d="M119.2,127.5c0,1.9-1.4,3-3.6,3h-1.7v2.3h-1.9v-8.4h3.6C117.8,124.5,119.2,125.7,119.2,127.5z M117.2,127.5
		c0-0.9-0.6-1.5-1.8-1.5h-1.6v2.9h1.6C116.6,129,117.2,128.5,117.2,127.5z"/>
	<path d="M121.1,128.7c0-2.5,1.9-4.3,4.6-4.3c2.6,0,4.6,1.8,4.6,4.3c0,2.5-2,4.3-4.6,4.3C123.1,133,121.1,131.2,121.1,128.7z
		 M128.4,128.7c0-1.6-1.1-2.7-2.6-2.7c-1.5,0-2.6,1.1-2.6,2.7c0,1.6,1.1,2.7,2.6,2.7C127.2,131.4,128.4,130.3,128.4,128.7z"/>
</g>
<g class="st3">
	<path d="M138.6,132.9l-1.6-2.3h-0.1h-1.7v2.3h-1.9v-8.4h3.6c2.2,0,3.6,1.2,3.6,3c0,1.3-0.6,2.2-1.7,2.7l1.9,2.7H138.6z
		 M136.7,126.1h-1.6v2.9h1.6c1.2,0,1.8-0.6,1.8-1.5C138.5,126.6,137.9,126.1,136.7,126.1z"/>
</g>
<g class="st3">
	<path d="M144.8,126.1h-2.7v-1.6h7.3v1.6h-2.7v6.8h-1.9V126.1z"/>
	<path d="M158,131.3v1.6h-6.5v-8.4h6.3v1.6h-4.4v1.8h3.9v1.5h-3.9v1.9H158z"/>
	<path d="M171.5,131.3v1.6H165v-8.4h6.3v1.6h-4.4v1.8h3.9v1.5h-3.9v1.9H171.5z"/>
</g>
<g class="st3">
	<path d="M80.6,143.1c0-2.5,1.9-4.3,4.6-4.3c1.5,0,2.7,0.5,3.5,1.5l-1.2,1.2c-0.6-0.6-1.3-1-2.1-1c-1.6,0-2.7,1.1-2.7,2.7
		c0,1.6,1.1,2.7,2.7,2.7c0.8,0,1.5-0.3,2.1-1l1.2,1.2c-0.8,1-2,1.5-3.5,1.5C82.5,147.4,80.6,145.6,80.6,143.1z"/>
</g>
<g class="st3">
	<path d="M90.4,143.1c0-2.5,1.9-4.3,4.6-4.3c2.6,0,4.6,1.8,4.6,4.3c0,2.5-2,4.3-4.6,4.3C92.3,147.4,90.4,145.6,90.4,143.1z
		 M97.6,143.1c0-1.6-1.1-2.7-2.6-2.7c-1.5,0-2.6,1.1-2.6,2.7c0,1.6,1.1,2.7,2.6,2.7C96.5,145.8,97.6,144.7,97.6,143.1z"/>
	<path d="M109.7,147.3l0-5l-2.5,4.1h-0.9l-2.5-4v4.9H102v-8.4h1.6l3.1,5.2l3.1-5.2h1.6l0,8.4H109.7z"/>
</g>
<g class="st3">
	<path d="M122.2,141.9c0,1.9-1.4,3-3.6,3h-1.7v2.3h-1.9v-8.4h3.6C120.8,138.9,122.2,140.1,122.2,141.9z M120.2,141.9
		c0-0.9-0.6-1.5-1.8-1.5h-1.6v2.9h1.6C119.6,143.4,120.2,142.9,120.2,141.9z"/>
</g>
<g class="st3">
	<path d="M129.9,145.5H126l-0.7,1.8h-2l3.7-8.4h1.9l3.8,8.4h-2L129.9,145.5z M129.2,144l-1.3-3.2l-1.3,3.2H129.2z"/>
</g>
<g class="st3">
	<path d="M140.1,147.3l-1.6-2.3h-0.1h-1.7v2.3h-1.9v-8.4h3.6c2.2,0,3.6,1.2,3.6,3c0,1.3-0.6,2.2-1.7,2.7l1.9,2.7H140.1z
		 M138.3,140.5h-1.6v2.9h1.6c1.2,0,1.8-0.6,1.8-1.5C140,141,139.4,140.5,138.3,140.5z"/>
</g>
<g class="st3">
	<path d="M146.4,140.5h-2.7v-1.6h7.3v1.6h-2.7v6.8h-1.9V140.5z"/>
	<path d="M153,138.9h1.9v8.4H153V138.9z"/>
	<path d="M158,138.9h1.9v6.8h4.2v1.6H158V138.9z"/>
	<path d="M173.9,138.9v8.4H172v-3.4h-3.8v3.4h-1.9v-8.4h1.9v3.3h3.8v-3.3H173.9z"/>
	<path d="M183.4,145.7v1.6h-6.5v-8.4h6.3v1.6h-4.4v1.8h3.9v1.5h-3.9v1.9H183.4z"/>
</g>
<polygon class="st4" points="115.1,70.8 154.5,70.8 134.8,106.1 131.1,84.4 "/>
<line class="st4" x1="131.1" y1="84.4" x2="154.5" y2="70.8"/>
</svg>
