<svg id="Camada_1" data-name="Camada 1" xmlns="http://www.w3.org/2000/svg" viewBox="0 0 399 95"><defs><style>.cls-1{fill:#fff;}.cls-2{fill:#141518;}</style></defs><path class="cls-1" d="M80.23,14.27A47,47,0,1,1,13.77,80.73,47,47,0,1,1,80.23,14.27ZM91.53,47.5A44.53,44.53,0,1,0,47,92,44.57,44.57,0,0,0,91.53,47.5Z"/><path class="cls-1" d="M84.43,58.09s0,.11-.07.32h0a36,36,0,0,1-9.51,17.22A35.06,35.06,0,0,1,57.75,85l-.31,0a.87.87,0,0,1-.22-1.71h0a41.31,41.31,0,0,0,15.86-9.74A40.36,40.36,0,0,0,82.7,57.92a1.19,1.19,0,0,0,0-.14h0a.87.87,0,0,1,1.68.32Z"/><path class="cls-1" d="M78.48,56.21s0,.1,0,.28h0A30.33,30.33,0,0,1,70.35,71a29.76,29.76,0,0,1-14.52,7.91l-.26,0a.74.74,0,0,1-.74-.74.75.75,0,0,1,.56-.71h0a37.2,37.2,0,0,0,13.2-8.42,36,36,0,0,0,8.4-13l0-.12h0a.75.75,0,0,1,.69-.46A.74.74,0,0,1,78.48,56.21Z"/><path class="cls-1" d="M72.08,54.33s0,.07,0,.22A22,22,0,0,1,70.56,59a23.8,23.8,0,0,1-5,7.19,24.54,24.54,0,0,1-12,6.35l-.21,0a.6.6,0,0,1-.6-.59.58.58,0,0,1,.45-.57h0A30.35,30.35,0,0,0,64,64.68a32.76,32.76,0,0,0,6.88-10.56h0a.6.6,0,0,1,1.16.22Z"/><path class="cls-1" d="M47,29.08A18.42,18.42,0,1,1,28.58,47.5,18.44,18.44,0,0,1,47,29.08ZM63,47.5a16,16,0,1,0-16,16A16,16,0,0,0,63,47.5Z"/><path class="cls-2" d="M47,3A44.53,44.53,0,1,1,2.47,47.5,44.57,44.57,0,0,1,47,3ZM84.36,58.41c0-.21.07-.32.07-.32a.87.87,0,0,0-1.68-.32h0a1.19,1.19,0,0,1,0,.14,40.36,40.36,0,0,1-9.59,15.69,41.31,41.31,0,0,1-15.86,9.74h0a.87.87,0,0,0,.22,1.71l.31,0a35.06,35.06,0,0,0,17.1-9.38,36,36,0,0,0,9.51-17.22Zm-5.93-1.92c0-.18,0-.28,0-.28a.74.74,0,0,0-.74-.73.75.75,0,0,0-.69.46h0l0,.12a36,36,0,0,1-8.4,13,37.2,37.2,0,0,1-13.2,8.42h0a.75.75,0,0,0-.56.71.74.74,0,0,0,.74.74l.26,0A29.76,29.76,0,0,0,70.35,71a30.33,30.33,0,0,0,8.07-14.53ZM72,54.55c0-.15,0-.22,0-.22a.6.6,0,0,0-1.16-.22h0A32.76,32.76,0,0,1,64,64.68a30.35,30.35,0,0,1-10.77,6.75h0a.58.58,0,0,0-.45.57.6.6,0,0,0,.6.59l.21,0a24.54,24.54,0,0,0,12-6.35,23.8,23.8,0,0,0,5-7.19A22,22,0,0,0,72,54.55Zm-6.62-7A18.42,18.42,0,1,0,47,65.92,18.44,18.44,0,0,0,65.42,47.5ZM40.75,23.56A.58.58,0,0,0,41.2,23a.6.6,0,0,0-.6-.59l-.21,0a24.54,24.54,0,0,0-12,6.35,23.8,23.8,0,0,0-5,7.19A22,22,0,0,0,22,40.45c0,.15,0,.22,0,.22a.6.6,0,0,0,1.16.22h0A32.76,32.76,0,0,1,30,30.32a30.35,30.35,0,0,1,10.77-6.75Zm-2.14-6.09a.75.75,0,0,0,.56-.71.74.74,0,0,0-.74-.74l-.26.05A29.76,29.76,0,0,0,23.65,24a30.33,30.33,0,0,0-8.07,14.53h0c0,.18-.05.28-.05.28a.74.74,0,0,0,.74.73.75.75,0,0,0,.69-.46h0s0-.06,0-.12a36,36,0,0,1,8.4-13,37.2,37.2,0,0,1,13.2-8.42Zm-1.83-5.83a.87.87,0,0,0-.22-1.71h-.08a.85.85,0,0,0-.23,0,35.06,35.06,0,0,0-17.1,9.38A36,36,0,0,0,9.64,36.58h0a.85.85,0,0,0,.8,1.19.86.86,0,0,0,.81-.55h0a1.19,1.19,0,0,1,0-.14,40.36,40.36,0,0,1,9.59-15.69,41.31,41.31,0,0,1,15.86-9.74Z"/><path class="cls-1" d="M41.2,23a.58.58,0,0,1-.45.57h0A30.35,30.35,0,0,0,30,30.32a32.76,32.76,0,0,0-6.88,10.56h0a.6.6,0,0,1-1.16-.22s0-.07,0-.22A22,22,0,0,1,23.44,36a23.8,23.8,0,0,1,5-7.19,24.54,24.54,0,0,1,12-6.35l.21,0A.6.6,0,0,1,41.2,23Z"/><path class="cls-1" d="M39.17,16.76a.75.75,0,0,1-.56.71h0a37.2,37.2,0,0,0-13.2,8.42,36,36,0,0,0-8.4,13c0,.06,0,.1,0,.12h0a.75.75,0,0,1-.69.46.74.74,0,0,1-.74-.73s0-.1.05-.28h0A30.33,30.33,0,0,1,23.65,24a29.76,29.76,0,0,1,14.52-7.91l.26-.05A.74.74,0,0,1,39.17,16.76Z"/><path class="cls-1" d="M37.43,10.8a.88.88,0,0,1-.65.84h0a41.31,41.31,0,0,0-15.86,9.74A40.36,40.36,0,0,0,11.3,37.08a1.19,1.19,0,0,0,0,.14h0a.87.87,0,0,1-1.68-.32s0-.11.07-.32h0a36,36,0,0,1,9.51-17.22A35.06,35.06,0,0,1,36.25,10l.23,0h.08A.87.87,0,0,1,37.43,10.8Z"/><path class="cls-1" d="M36.25,10a.85.85,0,0,1,.23,0Z"/><path class="cls-2" d="M125.47,18.53a10,10,0,0,1,6.45,1.83q2.25,1.82,3.35,6.08l6.63,25.25a1.28,1.28,0,0,0,.92.31,1,1,0,0,0,.66-.28.87.87,0,0,0,.31-.7,4.7,4.7,0,0,0-.24-1.28l-6.21-24.21a19.17,19.17,0,0,0-.85-2.37,9.51,9.51,0,0,0-1.1-2,8.64,8.64,0,0,1-.67-1,1.34,1.34,0,0,1-.12-.6v-.43c0-.41.26-.61.79-.61h19.66a2.65,2.65,0,0,1,1.85.58,2.05,2.05,0,0,1,.64,1.61q0,2.25-3.62,13.11t-8.06,21.82a5,5,0,0,1-1.92,2.55,6,6,0,0,1-3.25.79h-8.83a6,6,0,0,1-3.25-.79,5,5,0,0,1-1.92-2.55L114.52,23.58a4.5,4.5,0,0,0-1-1.61,12,12,0,0,0-2.16-1.55.61.61,0,0,1-.3-.55v-.73c0-.41.24-.61.73-.61Z"/><path class="cls-2" d="M179.32,56.86a2.43,2.43,0,0,1-.45,1.65,2.11,2.11,0,0,1-1.56.48H165a2.08,2.08,0,0,1-1.55-.48,2.43,2.43,0,0,1-.45-1.65V25.47a7.3,7.3,0,0,0-.25-2.22,3.2,3.2,0,0,0-.85-1.28,17,17,0,0,0-2.07-1.55.61.61,0,0,1-.3-.55v-.73c0-.41.24-.61.73-.61h17a2.07,2.07,0,0,1,1.56.49,2.38,2.38,0,0,1,.45,1.64Z"/><path class="cls-2" d="M217.77,46.7a1.7,1.7,0,0,0,.61.12,1,1,0,0,0,.67-.27.92.92,0,0,0,.31-.7,3.56,3.56,0,0,0-.67-1.83l-14-23.12a5.2,5.2,0,0,1-.39-.7,1.29,1.29,0,0,1-.09-.51v-.37a.84.84,0,0,1,.18-.64,1,1,0,0,1,.61-.15h15.57a2,2,0,0,1,1.55.49,2.33,2.33,0,0,1,.46,1.64v36.2a2.38,2.38,0,0,1-.46,1.65,2.07,2.07,0,0,1-1.55.48h-7.79a8.37,8.37,0,0,1-4.38-1,10.55,10.55,0,0,1-3.16-3.59l-14.3-23.61a1.48,1.48,0,0,0-.55-.12,1.12,1.12,0,0,0-.7.27.89.89,0,0,0-.33.7A4,4,0,0,0,190,33.5l14,23.12a5.06,5.06,0,0,1,.4.7,1.31,1.31,0,0,1,.09.52v.36a1,1,0,0,1-.15.61.84.84,0,0,1-.64.18H188.14a2.08,2.08,0,0,1-1.55-.48,2.43,2.43,0,0,1-.46-1.65V25.47a7.37,7.37,0,0,0-.24-2.22A3.2,3.2,0,0,0,185,22,17,17,0,0,0,183,20.42a.61.61,0,0,1-.3-.55v-.73c0-.41.24-.61.73-.61h12.53a8.41,8.41,0,0,1,4.38,1,10.56,10.56,0,0,1,3.17,3.59Z"/><path class="cls-2" d="M228.24,23.58a4.5,4.5,0,0,0-1-1.61,12,12,0,0,0-2.16-1.55.59.59,0,0,1-.31-.55v-.73c0-.41.24-.61.73-.61h13.69a12.09,12.09,0,0,1,4.75.82,7.32,7.32,0,0,1,3.1,2.56,14.13,14.13,0,0,1,2,4.53l5.23,19.78a1.25,1.25,0,0,0,.91.3,1,1,0,0,0,.67-.27.93.93,0,0,0,.31-.7,4.72,4.72,0,0,0-.25-1.28l-4.8-18.74a19.33,19.33,0,0,0-.86-2.37,9.54,9.54,0,0,0-1.09-2,7.42,7.42,0,0,1-.67-1,1.34,1.34,0,0,1-.12-.6v-.43c0-.41.26-.61.79-.61h19.65a2.68,2.68,0,0,1,1.86.58,2.09,2.09,0,0,1,.64,1.61,26.94,26.94,0,0,1-1.4,6.09q-1.41,4.56-6.21,18.37a6.18,6.18,0,0,1-2,3.23,6.1,6.1,0,0,1-3.44.85v7.6a2.43,2.43,0,0,1-.45,1.65,2.08,2.08,0,0,1-1.55.48H243.88a2.11,2.11,0,0,1-1.56-.48,2.43,2.43,0,0,1-.45-1.65v-7.6a8.24,8.24,0,0,1-2.53-.31,3.36,3.36,0,0,1-1.52-.94,6.85,6.85,0,0,1-1.12-2.1Z"/><path class="cls-2" d="M291,18.53a2,2,0,0,1,1.55.49,2.33,2.33,0,0,1,.46,1.64v34.8a1.26,1.26,0,0,0,1.09.49c.69,0,1-.45,1-1.34V43a1.79,1.79,0,0,1,2.13-2.13h7.48a6.39,6.39,0,0,1,5.05,1.86c1.1,1.23,1.64,3.13,1.64,5.69v8.45a2.43,2.43,0,0,1-.45,1.65,2.08,2.08,0,0,1-1.55.48H278.74a2.07,2.07,0,0,1-1.55-.48,2.38,2.38,0,0,1-.46-1.65V25.47a7.37,7.37,0,0,0-.24-2.22,3.2,3.2,0,0,0-.85-1.28,17,17,0,0,0-2.07-1.55.59.59,0,0,1-.31-.55v-.73c0-.41.25-.61.73-.61Z"/><path class="cls-2" d="M334.35,60q-10,0-15.42-5.57t-5.45-15.73q0-10.15,5.45-15.7t15.42-5.53q10,0,15.42,5.53t5.45,15.7q0,10.17-5.45,15.73T334.35,60Zm0-3.11c.77,0,1.16-.54,1.16-1.64v-33c0-1.09-.39-1.64-1.16-1.64s-1.16.55-1.16,1.64v33C333.19,56.38,333.58,56.92,334.35,56.92Z"/><path class="cls-2" d="M385.58,59a18.59,18.59,0,0,1-3.32.82,23.74,23.74,0,0,1-3.49.22q-10.11,0-15.58-5.63t-5.48-16a22,22,0,0,1,2.62-10.86,18.23,18.23,0,0,1,7.61-7.37,24.88,24.88,0,0,1,11.8-2.64A21.24,21.24,0,0,1,387.89,19a14,14,0,0,1,5.84,4.23,9.73,9.73,0,0,1,2.19,6.26A8.11,8.11,0,0,1,393,36a11.52,11.52,0,0,1-7.72,2.47A12.42,12.42,0,0,1,380,37.36a9.46,9.46,0,0,1-3.83-3.16,7.94,7.94,0,0,1-1.43-4.66,6.57,6.57,0,0,1,2.25-5.23A9,9,0,0,1,383,22.36a1.07,1.07,0,0,0,.37-.79.86.86,0,0,0-.43-.76,2,2,0,0,0-1.09-.27,9.23,9.23,0,0,0-4.53,1.16A9,9,0,0,0,374,24.92a8.75,8.75,0,0,0-1.28,4.68,10.29,10.29,0,0,0,1,4.66A12.32,12.32,0,0,0,377,38.12a2.58,2.58,0,0,1,.79,1,3.24,3.24,0,0,1,.25,1.36V55.28c0,1.1.36,1.64,1.09,1.64s1.1-.54,1.1-1.64V42.08a2.43,2.43,0,0,1,.45-1.65,2.08,2.08,0,0,1,1.55-.48h17c.49,0,.73.2.73.61v.73a.75.75,0,0,1-.09.39,1.58,1.58,0,0,1-.52.4A6.1,6.1,0,0,0,397.08,44a5.71,5.71,0,0,0-.55,2.86v10a2.43,2.43,0,0,1-.45,1.65,2.11,2.11,0,0,1-1.56.48Z"/><path class="cls-2" d="M132.62,70c-.17-1.3-.63-1.89-1.49-1.89-1,0-1.57.93-1.57,3.24v1.37c0,2.28.52,3.24,1.57,3.24.89,0,1.31-.59,1.49-1.89h1.71c-.31,2.41-1.41,3.46-3.2,3.46-2,0-3.37-1.44-3.37-4.81V71.32c0-3.37,1.38-4.81,3.37-4.81,1.73,0,2.9,1.13,3.2,3.46Z"/><path class="cls-2" d="M140.91,77.36l3-10.71h1.77l3,10.71h-1.91l-.56-2.22h-2.87l-.55,2.22Zm2.84-3.77h2.08l-1-4.22Z"/><path class="cls-2" d="M161.18,66.65v1.57h-2.41v9.14H157V68.22h-2.41V66.65Z"/><path class="cls-2" d="M167,77.36l3-10.71h1.77l3,10.71h-1.91l-.56-2.22h-2.87l-.54,2.22Zm2.84-3.77H172l-1-4.22Z"/><path class="cls-2" d="M183.88,75.81h3.65v1.55h-5.45V66.65h1.8Z"/><path class="cls-2" d="M194.14,72.69V71.32c0-3.37,1.38-4.81,3.37-4.81s3.37,1.44,3.37,4.81v1.37c0,3.37-1.38,4.81-3.37,4.81S194.14,76.06,194.14,72.69Zm1.8-1.37v1.37c0,2.31.51,3.26,1.57,3.26s1.57-1,1.57-3.26V71.32c0-2.31-.52-3.26-1.57-3.26S195.94,69,195.94,71.32Z"/><path class="cls-2" d="M214.94,71.87v.82c0,3.46-1.24,4.81-3.21,4.81s-3.37-1.44-3.37-4.81V71.4c0-3.45,1.38-4.89,3.37-4.89,1.81,0,2.93,1.21,3.19,3.46h-1.7c-.16-1.24-.61-1.89-1.49-1.89-1.06,0-1.57.93-1.57,3.24v1.37c0,2.31.51,3.24,1.57,3.24s1.42-.77,1.49-2.5h-1.46V71.87Z"/><path class="cls-2" d="M229.5,66.65V73c0,3.16-1.42,4.48-3.36,4.48s-3.35-1.32-3.35-4.47V66.65h1.8V73c0,2,.45,2.9,1.55,2.9s1.56-.85,1.56-2.9V66.65Z"/><path class="cls-2" d="M243.19,66.65v1.57h-3.65V71h3.26V72.6h-3.26v3.21h3.65v1.55h-5.45V66.65Z"/><path class="cls-2" d="M264.88,69.23a1.78,1.78,0,0,0-1.69-1.15c-.87,0-1.28.49-1.28,1.39s.56,1.43,1.73,1.76c1.83.51,2.67,1.35,2.67,3.2a2.88,2.88,0,0,1-3.05,3.07,3.68,3.68,0,0,1-3.37-1.75l1.39-1a2,2,0,0,0,1.87,1.14,1.24,1.24,0,0,0,1.36-1.42c0-.86-.35-1.39-1.78-1.79a3.1,3.1,0,0,1-2.62-3.25,2.77,2.77,0,0,1,3-3,3.23,3.23,0,0,1,3.07,1.75Z"/><path class="cls-2" d="M279.53,66.65v1.57h-3.65V71h3.26V72.6h-3.26v3.21h3.65v1.55h-5.45V66.65Z"/><path class="cls-2" d="M293.92,66.65V73c0,3.16-1.42,4.48-3.36,4.48s-3.35-1.32-3.35-4.47V66.65H289V73c0,2,.45,2.9,1.55,2.9s1.55-.85,1.55-2.9V66.65Z"/><path class="cls-2" d="M306.64,69.23A1.78,1.78,0,0,0,305,68.08c-.87,0-1.27.49-1.27,1.39s.56,1.43,1.72,1.76c1.83.51,2.67,1.35,2.67,3.2a2.87,2.87,0,0,1-3,3.07,3.68,3.68,0,0,1-3.37-1.75l1.38-1a2,2,0,0,0,1.88,1.14c1,0,1.35-.65,1.35-1.42s-.34-1.39-1.77-1.79a3.11,3.11,0,0,1-2.63-3.25,2.77,2.77,0,0,1,3-3A3.24,3.24,0,0,1,308,68.26Z"/><path class="cls-2" d="M325.37,77.36V66.65h3.09c2,0,3.37,1.29,3.37,4.72v1.27c0,3.43-1.4,4.72-3.37,4.72ZM330,72.64V71.37c0-2.21-.39-3.17-1.57-3.17h-1.29v7.61h1.29C329.64,75.81,330,74.85,330,72.64Z"/><path class="cls-2" d="M341.62,77.36h-1.8V66.65h1.8Z"/><path class="cls-2" d="M354.47,69.23a1.78,1.78,0,0,0-1.7-1.15c-.87,0-1.27.49-1.27,1.39s.56,1.43,1.72,1.76c1.84.51,2.68,1.35,2.68,3.2a2.88,2.88,0,0,1-3,3.07,3.68,3.68,0,0,1-3.37-1.75l1.38-1a2.05,2.05,0,0,0,1.88,1.14c1,0,1.35-.65,1.35-1.42s-.34-1.39-1.77-1.79a3.1,3.1,0,0,1-2.62-3.25,2.77,2.77,0,0,1,3-3,3.23,3.23,0,0,1,3.07,1.75Z"/><path class="cls-2" d="M368.16,70c-.18-1.3-.64-1.89-1.5-1.89-1.05,0-1.56.93-1.56,3.24v1.37c0,2.28.51,3.24,1.56,3.24.89,0,1.31-.59,1.5-1.89h1.7c-.31,2.41-1.41,3.46-3.2,3.46-2,0-3.37-1.44-3.37-4.81V71.32c0-3.37,1.39-4.81,3.37-4.81,1.73,0,2.91,1.13,3.2,3.46Z"/><path class="cls-2" d="M377.06,72.69V71.32c0-3.37,1.38-4.81,3.37-4.81s3.37,1.44,3.37,4.81v1.37c0,3.37-1.38,4.81-3.37,4.81S377.06,76.06,377.06,72.69Zm1.8-1.37v1.37c0,2.31.51,3.26,1.57,3.26S382,75,382,72.69V71.32c0-2.31-.51-3.26-1.57-3.26S378.86,69,378.86,71.32Z"/><path class="cls-2" d="M396.11,69.23a1.78,1.78,0,0,0-1.69-1.15c-.87,0-1.28.49-1.28,1.39s.56,1.43,1.73,1.76c1.83.51,2.67,1.35,2.67,3.2a2.88,2.88,0,0,1-3.05,3.07,3.68,3.68,0,0,1-3.37-1.75l1.39-1a2,2,0,0,0,1.87,1.14,1.24,1.24,0,0,0,1.36-1.42c0-.86-.35-1.39-1.78-1.79a3.1,3.1,0,0,1-2.62-3.25,2.77,2.77,0,0,1,3-3,3.23,3.23,0,0,1,3.07,1.75Z"/><path class="cls-1" d="M55.8,44.54H50.9A.94.94,0,0,1,50,43.6V38.7a.93.93,0,0,0-.93-.93H45a.93.93,0,0,0-.93.93v4.9a.94.94,0,0,1-.94.94H38.2a.93.93,0,0,0-.93.93v4.06a.93.93,0,0,0,.93.93h4.9a.94.94,0,0,1,.94.94v4.9a.93.93,0,0,0,.93.93H49A.93.93,0,0,0,50,56.3V51.4a.94.94,0,0,1,.94-.94h4.9a.93.93,0,0,0,.93-.93V45.47A.93.93,0,0,0,55.8,44.54Z"/></svg>